<?xml version="1.0" encoding="UTF-8" standalone="no"?>
<!-- Created with Inkscape (http://www.inkscape.org/) -->

<svg
   width="224"
   height="224"
   viewBox="0 0 59.266666 59.266666"
   version="1.1"
   id="svg5"
   xmlns="http://www.w3.org/2000/svg"
   xmlns:svg="http://www.w3.org/2000/svg">
  <defs
     id="defs2" />
  <g
     id="layer1"
     transform="translate(-4.2333335,-4.2333335)">
    <g
       id="g837"
       transform="translate(-4.2333331,-4.2333331)">
      <circle
         style="fill:#75ffff;fill-opacity:1;stroke-width:0.490676;stroke-opacity:0.5"
         id="path874"
         cx="33.866665"
         cy="33.866665"
         r="16.933332" />
      <path
         id="path1000"
         style="fill:#79ff79;fill-opacity:1;stroke:none;stroke-width:1.4756;stroke-opacity:0.5"
         d="m 128,32 a 95.999999,95.999999 0 0 0 -96,96 95.999999,95.999999 0 0 0 96,96 95.999999,95.999999 0 0 0 96,-96 95.999999,95.999999 0 0 0 -96,-96 z m 0,16 a 79.999998,79.999998 0 0 1 80,80 79.999998,79.999998 0 0 1 -80,80 79.999998,79.999998 0 0 1 -80,-80 79.999998,79.999998 0 0 1 80,-80 z"
         transform="scale(0.26458333)" />
      <path
         style="fill:#ffbb75;fill-opacity:1;stroke:none;stroke-width:1.75748;stroke-opacity:0.5"
         id="path1216"
         transform="matrix(0.10815272,-0.08633946,0.08692235,0.10935647,9.4514787,16.102334)"
         d="M 77.845864,83.576847 33.499934,67.152769 -10.845998,50.728689 25.550637,20.536027 61.947273,-9.6566374 69.896569,36.960104 Z" />
      <path
         style="fill:#ffbb75;fill-opacity:1;stroke:none;stroke-width:1.75748;stroke-opacity:0.5"
         id="path1216-5"
         transform="matrix(-0.10815272,0.08633946,-0.08692235,-0.10935647,58.017271,51.366416)"
         d="M 77.845864,83.576847 33.499934,67.152769 -10.845998,50.728689 25.550637,20.536027 61.947273,-9.6566374 69.896569,36.960104 Z" />
      <path
         id="path2292"
         style="fill:#26ceff;fill-opacity:0.250575;stroke:none;stroke-width:0.399899;stroke-opacity:0.5"
         d="M 47.248795,35.454167 A 11.377084,11.377084 0 0 0 35.993151,45.186389 11.377084,11.377084 0 0 0 26.764258,56.35625 11.377084,11.377084 0 0 0 38.141341,67.733333 11.377084,11.377084 0 0 0 47.248795,63.162036 11.377084,11.377084 0 0 0 56.356249,67.733333 11.377084,11.377084 0 0 0 67.733333,56.35625 11.377084,11.377084 0 0 0 58.505473,45.186906 11.377084,11.377084 0 0 0 47.248795,35.454167 Z" />
    </g>
  </g>
</svg>
